Coordinates
version=1
nRows=17
nColumns=36
inDegrees=yes

Units are S.I. units (second, meters, Newtons, ...)
If the header above contains a line with 'inDegrees', this indicates whether rotational values are in degrees (yes) or radians (no).

endheader
time	pelvis_tilt	pelvis_list	pelvis_rotation	pelvis_tx	pelvis_ty	pelvis_tz	hip_flexion_r	hip_adduction_r	hip_rotation_r	knee_angle_r	knee_angle_r_beta	ankle_angle_r	subtalar_angle_r	mtp_angle_r	hip_flexion_l	hip_adduction_l	hip_rotation_l	knee_angle_l	knee_angle_l_beta	ankle_angle_l	subtalar_angle_l	mtp_angle_l	lumbar_extension	lumbar_bending	lumbar_rotation	arm_flex_r	arm_add_r	arm_rot_r	elbow_flex_r	pro_sup_r	arm_flex_l	arm_add_l	arm_rot_l	elbow_flex_l	pro_sup_l
      0.00000000	      2.13101438	      1.79352258	      4.98653746	     -0.12915514	      0.91910044	     -0.30420131	     23.87644225	     -5.36486208	    -12.05511353	      4.63770305	      0.08094319	      5.08593158	    -15.62581240	     -4.70806536	    -21.96701026	      0.30329687	     -6.96731063	     10.81102831	      0.18868804	     11.15197787	     -6.37574827	     -4.70806536	     -6.35993154	     -2.47881354	     -9.87737553	    -15.33537098	     -0.39050286	    -26.83606748	     24.62292617	    112.43994795	     12.24474155	     -6.85267946	     -1.85370389	     49.60808138	    109.19603352
      0.01000000	      2.10522272	      1.25227075	      5.03029093	     -0.11420094	      0.91943831	     -0.30102215	     23.54611171	     -4.62232765	    -12.52363163	      5.15545229	      0.08997962	      3.80272157	    -15.62097586	     -4.74211089	    -21.84408278	     -0.73799985	     -7.20495078	     12.43805965	      0.21708509	      9.65869905	     -6.74769559	     -4.74211089	     -6.09968836	     -1.80880547	     -9.76836424	    -15.21536573	     -0.52380305	    -26.84230662	     24.70265510	    112.45963062	     11.44968492	     -6.58688532	     -2.21215098	     48.51324207	    109.05102479
      0.02000000	      2.09087563	      0.69997089	      5.04766822	     -0.09923923	      0.91990754	     -0.29781074	     23.20163334	     -3.85798717	    -12.89292762	      5.69896362	      0.09946568	      2.31887920	    -15.85207845	     -4.77680660	    -21.69462572	     -1.77386299	     -7.35346542	     14.10305584	      0.24614476	      7.97634158	     -7.27896641	     -4.77680660	     -5.82621396	     -1.12666162	     -9.60347065	    -15.09130170	     -0.67354788	    -26.83034376	     24.77792826	    112.47924298	     10.69857978	     -6.24650812	     -2.69379758	     47.29178278	    108.88856438
      0.03000000	      2.09099200	      0.16073726	      5.03568331	     -0.08418652	      0.92064008	     -0.29458074	     22.83675440	     -3.12020306	    -13.24099821	      6.31003506	      0.11013089	      0.85589727	    -16.26756314	     -4.81203436	    -21.42475385	     -2.78935599	     -7.56090398	     15.96731728	      0.27868226	      6.02306961	     -8.01220990	     -4.81203436	     -5.58028522	     -0.46916655	     -9.40006717	    -14.95339541	     -0.84316556	    -26.80261283	     24.86809088	    112.49941116	      9.93700409	     -5.89403962	     -3.22773836	     45.94979746	    108.72039417
      0.04000000	      2.08258554	     -0.28685683	      4.93732061	     -0.06925821	      0.92168615	     -0.29127658	     22.46213608	     -2.42720404	    -12.98112280	      6.94367349	      0.12118996	     -1.35986229	    -17.94151424	     -4.93719257	    -21.05755406	     -3.56202945	     -7.24003012	     17.87202472	      0.31192568	      3.14388273	    -10.20511726	     -4.93719257	     -5.32435849	      0.09644720	     -9.02870628	    -14.81262662	     -1.00818105	    -26.72260770	     24.95251733	    112.53817919	      9.32032851	     -5.43157513	     -3.95941364	     44.24579446	    108.57862416
      0.05000000	      2.17403697	     -0.84964311	      4.80309491	     -0.05417860	      0.92310513	     -0.28783723	     22.03322228	     -1.67697522	    -13.34510611	      7.85108073	      0.13702721	     -2.14915058	    -18.02912986	     -4.97754867	    -20.45059959	     -4.62248427	     -7.69892147	     20.39241179	      0.35591473	      0.85978217	    -10.90590175	     -4.97754867	     -5.17757572	      0.79443093	     -8.71303213	    -14.57283448	     -1.22717029	    -26.67434844	     25.11986083	    112.55544196	      8.47615041	     -5.14862914	     -4.35603241	     42.90992601	    108.45520766
      0.06000000	      2.29906293	     -1.37018730	      4.61379242	     -0.03926336	      0.92480961	     -0.28433582	     21.55763691	     -0.96817843	    -13.61333766	      8.81694007	      0.15388463	     -2.76728844	    -18.17392793	     -5.01391132	    -19.60510292	     -5.62258559	     -8.10285969	     23.30768974	      0.40679593	     -1.88003717	    -12.13279196	     -5.01391132	     -5.10969875	      1.43564952	     -8.25992946	    -14.32943490	     -1.42240575	    -26.58808680	     25.33343915	    112.58120826	      7.76415630	     -4.84892468	     -4.87936285	     41.30060799	    108.30240430
      0.07000000	      2.38727733	     -1.88006681	      4.32593978	     -0.02452441	      0.92663258	     -0.28082569	     21.08552516	     -0.24900452	    -13.81368510	      9.72520675	      0.16973688	     -3.20463377	    -18.32661100	     -5.04969952	    -18.47139707	     -6.57632013	     -8.53083795	     26.55963295	      0.46355304	     -5.07620929	    -13.88553917	     -5.04969952	     -5.02636756	      2.10159040	     -7.66257106	    -14.06882686	     -1.69463848	    -26.47469500	     25.61947264	    112.61433982	      7.07509354	     -4.48702755	     -5.41703240	     39.51747862	    108.14556676
      0.08000000	      2.49650277	     -2.15185711	      3.91894634	     -0.01029514	      0.92863610	     -0.27747914	     20.60233939	      0.24131924	    -13.64461607	     10.68279304	      0.18644991	     -3.67646486	    -18.63875811	     -5.15628171	    -17.23460597	     -7.00517344	     -8.28150875	     29.77097732	      0.51960158	     -9.99234042	    -18.06620647	     -5.15628171	     -5.00567027	      2.49127420	     -6.81720979	    -13.80533580	     -1.93866186	    -26.27772278	     26.06020532	    112.65740046	      6.72444388	     -4.05190335	     -5.83411582	     37.25988386	    108.10464944
      0.09000000	      2.62140602	     -2.72332561	      3.48157862	      0.00382338	      0.93055753	     -0.27387005	     19.96259333	      1.12206424	    -13.57540483	     11.33901130	      0.19790308	     -3.69857786	    -18.54502675	     -5.19750563	    -15.70649675	     -8.02109707	     -8.77504981	     33.55054449	      0.58556747	    -12.93615320	    -19.49752678	     -5.19750563	     -5.02915244	      3.22399452	     -6.07931060	    -13.42115283	     -2.27292089	    -26.10764200	     26.49353445	    112.69770051	      6.06114212	     -3.75534763	     -6.24556912	     35.65053787	    107.99105771
      0.10000000	      2.70971504	     -3.05049500	      2.96201245	      0.01737624	      0.93245287	     -0.27038447	     19.38228397	      1.75688225	    -13.34900690	     12.00378845	      0.20950563	     -3.65601305	    -18.56910226	     -5.28483205	    -14.02580087	     -8.55222439	     -8.75664904	     37.24299551	      0.65001289	    -17.13790012	    -22.88194271	     -5.28483205	     -5.09743482	      3.66457735	     -5.04283568	    -13.12820986	     -2.58997970	    -25.72148081	     27.14855984	    112.74990680	      5.75859020	     -3.39926793	     -6.68610750	     33.41774961	    107.91403442
      0.11000000	      2.86519119	     -3.48101582	      2.45815573	      0.03063784	      0.93436518	     -0.26695405	     18.61106269	      2.55392735	    -13.02350756	     12.42451466	      0.21684869	     -3.39060592	    -18.56165474	     -5.40000761	    -12.28710473	     -9.25337115	     -8.86359641	     40.98706988	      0.71535932	    -20.22399914	    -25.18960972	     -5.40000761	     -5.28295049	      4.23633295	     -4.08206724	    -12.70679209	     -2.98461136	    -25.31691674	     27.76033769	    112.75861173	      5.33049938	     -3.15178665	     -6.89957884	     31.61166743	    107.91173370
      0.12000000	      2.94686637	     -3.90895982	      1.98279439	      0.04347292	      0.93609259	     -0.26357794	     17.86042556	      3.36667609	    -12.61815374	     12.70906868	      0.22181509	     -3.08024150	    -18.53952481	     -5.44405077	    -10.32714187	     -9.94781606	     -8.82218882	     44.76777120	      0.78134501	    -21.60137563	    -26.47762720	     -5.44405077	     -5.42549100	      4.78401685	     -3.20190440	    -12.22481384	     -3.38131104	    -24.89480848	     28.45260592	    112.81232830	      4.87769216	     -2.90839407	     -7.38309353	     29.91928164	    107.76196589
      0.13000000	      3.11280268	     -4.27659838	      1.59206954	      0.05599844	      0.93790754	     -0.26050679	     16.93598837	      4.10980324	    -12.17192240	     12.84922520	      0.22426129	     -2.59520701	    -18.64438114	     -5.47215792	     -8.41567393	    -10.51276104	     -8.63908409	     48.29391326	      0.84288779	    -22.30969555	    -27.64002719	     -5.47215792	     -5.70023776	      5.25812608	     -2.36935084	    -11.66655837	     -3.82620019	    -24.45680275	     29.10850140	    112.86671837	      4.44719106	     -2.71296876	     -7.79239665	     28.39502846	    107.61529413
      0.14000000	      3.56469123	     -4.31600131	      1.21959652	      0.06808859	      0.94024550	     -0.25765029	     15.71124783	      4.47087916	    -11.71052030	     13.03794871	      0.22755513	     -2.29024683	    -18.68004299	     -5.48437440	     -6.85686431	    -10.57874480	     -8.30702816	     51.34230976	      0.89609235	    -22.39757339	    -28.38556020	     -5.48437440	     -6.44414887	      5.33333860	     -1.56866085	    -10.86388041	     -4.20227321	    -24.15002855	     29.64314526	    112.91175761	      3.99317413	     -2.66954790	     -8.06080681	     27.33828992	    107.50421694
      0.15000000	      3.35889615	     -4.62684976	      1.01734548	      0.08005464	      0.94153256	     -0.25503110	     15.13534957	      5.09526983	    -11.31193904	     13.05234864	      0.22780646	     -1.80625782	    -18.97596008	     -5.53736855	     -4.31947428	    -11.00133553	     -7.90060305	     54.52906661	      0.95171175	    -21.68696982	    -29.32953166	     -5.53736855	     -6.23487396	      5.76673869	     -0.80553303	    -10.55545245	     -4.79727785	    -22.97406917	     30.59768359	    112.97980566	      3.93130189	     -2.42556730	     -8.59428401	     24.79410965	    107.25275196
      0.16000000	      3.55968847	     -4.72257236	      0.92598285	      0.09183714	      0.94357293	     -0.25263506	     13.99094995	      5.47916834	    -10.93277761	     12.85726693	      0.22440164	     -1.24861766	    -19.14565442	     -5.56531698	     -2.31573233	    -11.09056677	     -7.38823163	     57.12315913	      0.99698721	    -20.67412409	    -29.75577154	     -5.56531698	     -6.59901226	      5.90728591	     -0.34347008	     -9.77359014	     -5.24087734	    -22.42072769	     31.17380220	    112.99401574	      3.48870366	     -2.44610688	     -8.78249649	     23.44531820	    107.11049187
